<?xml version="1.0" encoding="UTF-8"?>
<svg width="100%" height="100%" viewBox="0 0 600 400" xmlns="http://www.w3.org/2000/svg">
  <defs>
    <!-- Gradients -->
    <linearGradient id="noteGradient" x1="0" y1="0" x2="1" y2="1">
      <stop offset="0%" stop-color="#ffffff"/>
      <stop offset="100%" stop-color="#d6eaff"/>
    </linearGradient>
    <linearGradient id="folderFlap" x1="0" y1="0" x2="1" y2="1">
      <stop offset="0%" stop-color="#ff6b6b"/>
      <stop offset="100%" stop-color="#d94c4c"/>
    </linearGradient>
    <linearGradient id="bgGradient" x1="0" y1="0" x2="1" y2="1">
      <stop offset="0%" stop-color="#e3f2fd"/>
      <stop offset="100%" stop-color="#bbdefb"/>
    </linearGradient>

    <!-- Shadow Filter -->
    <filter id="cardShadow" x="-20%" y="-20%" width="140%" height="140%">
      <feGaussianBlur in="SourceAlpha" stdDeviation="6"/>
      <feOffset dx="0" dy="6" result="offsetblur"/>
      <feComponentTransfer>
        <feFuncA type="linear" slope="0.4"/>
      </feComponentTransfer>
      <feMerge>
        <feMergeNode/>
        <feMergeNode in="SourceGraphic"/>
      </feMerge>
    </filter>

    <!-- Glow Effect -->
    <filter id="glow" x="-50%" y="-50%" width="200%" height="200%">
      <feGaussianBlur stdDeviation="3" result="blur"/>
      <feMerge>
        <feMergeNode in="blur"/>
        <feMergeNode in="SourceGraphic"/>
      </feMerge>
    </filter>

    <!-- Texture Pattern -->
    <pattern id="cardTexture" patternUnits="userSpaceOnUse" width="100" height="100">
      <rect width="100" height="100" fill="none"/>
      <circle cx="10" cy="10" r="1" fill="#000" opacity="0.05"/>
      <circle cx="50" cy="50" r="1" fill="#000" opacity="0.05"/>
      <circle cx="90" cy="90" r="1" fill="#000" opacity="0.05"/>
    </pattern>
  </defs>

  <!-- Background -->
  <rect width="600" height="400" fill="url(#bgGradient)"/>

  <!-- Note Card 1 -->
  <g transform="translate(50, 30)" filter="url(#cardShadow)">
    <rect width="220" height="160" rx="15" fill="url(#noteGradient)" stroke="#0288d1" stroke-width="3" opacity="0.98"/>
    <rect width="220" height="160" rx="15" fill="url(#cardTexture)" opacity="0.15"/>
    <rect x="20" y="20" width="180" height="28" rx="8" fill="#ff8a65" filter="url(#glow)"/>
    <rect x="20" y="60" width="160" height="12" rx="7" fill="#90caf9"/>
    <rect x="20" y="80" width="120" height="12" rx="7" fill="#90caf9"/>
    <rect x="20" y="100" width="140" height="12" rx="7" fill="#90caf9"/>
    <rect x="20" y="120" width="100" height="12" rx="7" fill="#90caf9"/>
    <animateTransform attributeName="transform" type="translate" values="0,0;0,-6;0,0" dur="1.6s" repeatCount="indefinite"/>
    <animate attributeName="opacity" values="0.98;1;0.98" dur="1.6s" repeatCount="indefinite"/>
  </g>

  <!-- Note Card 2 -->
  <g transform="translate(330, 30)" filter="url(#cardShadow)">
    <rect width="220" height="160" rx="15" fill="url(#noteGradient)" stroke="#0288d1" stroke-width="3" opacity="0.98"/>
    <rect width="220" height="160" rx="15" fill="url(#cardTexture)" opacity="0.15"/>
    <rect x="20" y="20" width="180" height="28" rx="8" fill="#ff8a65" filter="url(#glow)"/>
    <rect x="20" y="60" width="160" height="12" rx="7" fill="#90caf9"/>
    <rect x="20" y="80" width="120" height="12" rx="7" fill="#90caf9"/>
    <rect x="20" y="100" width="140" height="12" rx="7" fill="#90caf9"/>
    <rect x="20" y="120" width="100" height="12" rx="7" fill="#90caf9"/>
    <animateTransform attributeName="transform" type="translate" values="0,0;0,-6;0,0" dur="1.6s" repeatCount="indefinite"/>
    <animate attributeName="opacity" values="0.98;1;0.98" dur="1.6s" repeatCount="indefinite"/>
  </g>

  <!-- Folder Icon -->
  <g transform="translate(50, 220)" filter="url(#cardShadow)">
    <path d="M0,0 Q15,-15 30,0 L120,0 Q135,-15 150,0 L150,50 L0,50 Z" fill="url(#folderFlap)"/>
    <rect y="50" width="150" height="70" rx="10" fill="#ff9e80"/>
    <animateTransform attributeName="transform" type="scale" values="1,1;1.03,1.03;1,1" dur="2s" repeatCount="indefinite"/>
    <animate attributeName="opacity" values="1;0.95;1" dur="2s" repeatCount="indefinite"/>
  </g>

  <!-- Search Icon -->
  <g transform="translate(450, 220)">
    <circle cx="35" cy="35" r="30" fill="none" stroke="#0288d1" stroke-width="6" filter="url(#glow)"/>
    <line x1="50" y1="50" x2="70" y2="70" stroke="#0288d1" stroke-width="6" stroke-linecap="round"/>
    <animateTransform attributeName="transform" type="rotate" from="0 35 35" to="360 35 35" dur="3s" repeatCount="indefinite"/>
  </g>

  <!-- Decorative Circles -->
  <circle cx="30" cy="370" r="10" fill="#ff6b6b" opacity="0.4">
    <animate attributeName="r" values="10;12;10" dur="2s" repeatCount="indefinite"/>
    <animate attributeName="opacity" values="0.4;0.6;0.4" dur="2s" repeatCount="indefinite"/>
  </circle>
  <circle cx="570" cy="30" r="12" fill="#ff6b6b" opacity="0.4">
    <animate attributeName="r" values="12;14;12" dur="2s" repeatCount="indefinite"/>
    <animate attributeName="opacity" values="0.4;0.6;0.4" dur="2s" repeatCount="indefinite"/>
  </circle>
  <circle cx="300" cy="200" r="11" fill="#ff6b6b" opacity="0.4">
    <animate attributeName="r" values="11;13;11" dur="2s" repeatCount="indefinite"/>
    <animate attributeName="opacity" values="0.4;0.6;0.4" dur="2s" repeatCount="indefinite"/>
  </circle>
  <circle cx="570" cy="370" r="11" fill="#ff6b6b" opacity="0.4">
    <animate attributeName="r" values="11;13;11" dur="2s" repeatCount="indefinite"/>
    <animate attributeName="opacity" values="0.4;0.6;0.4" dur="2s" repeatCount="indefinite"/>
  </circle>
</svg>
